<svg xmlns="http://www.w3.org/2000/svg" width="437.229" height="437.228" viewBox="0 0 115.683 115.683">
  <path d="M13.019 0A12.99 12.99 0 000 13.019v89.646a12.99 12.99 0 0013.019 13.018h16.323c10.821-11.982 25.487-27.97 25.487-29.232 0-1.378-17.637-20.693-28.806-32.787-4.229 4.648-7.664 8.347-8.974 9.62-2.147 2.084-8.922-3.528-8.595-5.49a.64.64 0 01.165-.34c8.419-9.053 32.954-36.25 32.954-37.928 0-.902-8.199-10.126-16.745-19.526zm25.467 0c8.696 9.807 16.68 19.088 16.68 19.898 0 .917-11.417 14.023-21.857 25.684 1.98 2.13 4.508 4.899 7.188 7.852 10.386-11.355 28.85-32.013 28.85-33.47 0-.916-8.453-10.415-17.14-19.964zm27.388 0C74.721 9.968 82.94 19.513 82.94 20.335c0 .918-11.416 14.023-21.856 25.684C71.97 57.73 96.997 85.798 96.997 87.281c0 .972-13.577 16.003-24.699 28.402h30.367a12.99 12.99 0 0013.018-13.018V13.019A12.99 12.99 0 00102.665 0zM53.798 54.102a615.977 615.977 0 01-6.423 6.968c10.672 11.928 21.848 24.782 21.848 25.774 0 .983-13.902 16.361-25.09 28.84h13.379c10.782-11.933 25.092-27.548 25.092-28.796 0-1.378-17.638-20.693-28.806-32.786z" fill="#db4035"/>
</svg>